<svg width="17" height="17" viewBox="0 0 17 17" fill="none" xmlns="http://www.w3.org/2000/svg">
<path d="M8.69785 0.48877C4.17382 0.48877 0.499146 4.16535 0.499146 8.68938C0.499146 13.2134 4.17382 16.8881 8.69785 16.8881C13.2219 16.8881 16.8985 13.2134 16.8985 8.68938C16.8985 4.16535 13.2219 0.48877 8.69785 0.48877ZM12.3024 4.9681C12.6031 4.9681 12.9028 5.08118 13.1299 5.30824C13.584 5.76235 13.584 6.51134 13.1299 6.96544L8.16057 11.9348C7.70647 12.3889 6.95709 12.3889 6.50299 11.9348L4.29516 9.72542C3.84105 9.27131 3.84105 8.52347 4.29516 8.06936C4.74927 7.61524 5.49712 7.61526 5.95122 8.06936L7.33159 9.45011L11.4738 5.30824C11.7009 5.08118 12.0018 4.9681 12.3024 4.9681Z" fill="#4AC959"/>
</svg>
