<svg width="60" height="60" viewBox="0 0 60 60" fill="none" xmlns="http://www.w3.org/2000/svg">
<path d="M0 4.24264C0 1.89949 1.8995 0 4.24264 0L55.7574 0C58.1005 0 60 1.89949 60 4.24264V55.7574C60 58.1005 58.1005 60 55.7574 60H4.24264C1.89949 60 0 58.1005 0 55.7574V4.24264Z" fill="#46BD62"/>
<path d="M44.0692 26.7456L44.0695 26.7456L44.0669 26.7381C44.06 26.7178 44.0502 26.699 44.044 26.687L44.0431 26.6851C44.0355 26.6705 44.0323 26.6638 44.0306 26.6587L44.0282 26.6518L44.0255 26.6465C44.0253 26.6459 44.0246 26.6435 44.0228 26.6376C44.0216 26.6333 44.0189 26.6241 44.0145 26.6143C44.0098 26.604 44.0017 26.5892 43.9874 26.5753C43.9768 26.565 43.9659 26.5579 43.9581 26.5535C43.9317 26.5228 43.9003 26.5019 43.8792 26.4883C43.8518 26.4639 43.8151 26.4411 43.7758 26.4284C43.7458 26.4187 43.7264 26.4122 43.7159 26.4071L43.7163 26.4062L43.703 26.4019C43.6751 26.3929 43.6312 26.3812 43.5904 26.3796C43.5888 26.379 43.5866 26.3782 43.5843 26.3774C43.5774 26.375 43.5631 26.3706 43.545 26.3706H41.3716V15.4412C41.3716 15.1361 41.1239 14.9 40.8169 14.9H17.1736C16.8666 14.9 16.6189 15.1361 16.6189 15.4412V26.3706H14.4455C14.4274 26.3706 14.4131 26.375 14.4062 26.3774C14.4038 26.3782 14.4016 26.379 14.4 26.3796C14.367 26.3811 14.3332 26.3899 14.3091 26.3962C14.3038 26.3976 14.2989 26.3988 14.2946 26.3999L14.2946 26.3996L14.2874 26.4019L14.2056 26.4284C14.1598 26.4432 14.1284 26.4714 14.1101 26.489C14.0885 26.503 14.0564 26.5246 14.03 26.5564C14.0238 26.5606 14.0123 26.5694 14.0022 26.5833C13.9953 26.5929 13.9903 26.6032 13.9869 26.6137C13.9827 26.6232 13.9801 26.6309 13.9783 26.6361L13.9781 26.6366C13.9772 26.6392 13.9766 26.6408 13.9762 26.642C13.9535 26.6773 13.9417 26.7116 13.9336 26.7354L13.9326 26.7381C13.9229 26.7664 13.9099 26.8122 13.9091 26.8545L13.9076 26.8603L13.9075 26.861C13.9064 26.865 13.9046 26.8721 13.9032 26.8796C13.9016 26.8878 13.8999 26.8989 13.8999 26.9118V44.5571C13.8897 44.8648 14.14 45.1 14.4455 45.1H43.545C43.8519 45.1 44.0996 44.8639 44.0996 44.5588V26.9118C44.0996 26.8989 44.098 26.8878 44.0964 26.8796C44.0949 26.872 44.0931 26.865 44.0921 26.861L44.0919 26.8603L44.0905 26.8547V26.8421L44.0851 26.8263C44.0837 26.8222 44.0825 26.8169 44.0802 26.8024L44.0796 26.7987C44.0776 26.7855 44.0746 26.7667 44.0692 26.7456ZM17.7283 28.6256V15.9824H40.2622V28.6256L33.5105 33.5368L33.5104 33.5368L28.9952 36.8292L17.7283 28.6256ZM41.3716 27.4529H41.8736L41.3716 27.8183V27.4529ZM16.6189 27.4529V27.8183L16.1169 27.4529H16.6189ZM15.0002 44.0176V27.9906L28.6622 37.9328C28.6624 37.933 28.6627 37.9331 28.663 37.9333C28.7639 38.0092 28.8763 38.0412 28.9952 38.0412C29.1141 38.0412 29.2266 38.0092 29.3275 37.9333C29.3278 37.9331 29.328 37.933 29.3283 37.9328L42.9903 27.9906V44.0176H15.0002ZM20.811 19.5118H31.7233C32.0303 19.5118 32.278 19.2757 32.278 18.9706C32.278 18.6655 32.0303 18.4294 31.7233 18.4294H20.811C20.504 18.4294 20.2563 18.6655 20.2563 18.9706C20.2563 19.2757 20.504 19.5118 20.811 19.5118ZM20.811 23.0412H37.1795C37.4864 23.0412 37.7341 22.8051 37.7341 22.5C37.7341 22.1949 37.4864 21.9588 37.1795 21.9588H20.811C20.504 21.9588 20.2563 22.1949 20.2563 22.5C20.2563 22.8051 20.504 23.0412 20.811 23.0412ZM20.811 26.5706H37.1795C37.4864 26.5706 37.7341 26.3345 37.7341 26.0294C37.7341 25.7243 37.4864 25.4882 37.1795 25.4882H20.811C20.504 25.4882 20.2563 25.7243 20.2563 26.0294C20.2563 26.3345 20.504 26.5706 20.811 26.5706ZM37.7341 29.5588C37.7341 29.2537 37.4864 29.0176 37.1795 29.0176H20.811C20.504 29.0176 20.2563 29.2537 20.2563 29.5588C20.2563 29.8639 20.504 30.1 20.811 30.1H37.1795C37.4864 30.1 37.7341 29.8639 37.7341 29.5588Z" fill="white" stroke="white" stroke-width="0.2"/>
</svg>
