<svg width="39" height="57" viewBox="0 0 39 57" fill="none" xmlns="http://www.w3.org/2000/svg">
<path fill-rule="evenodd" clip-rule="evenodd" d="M38.2031 0.286296L1.08262 21.365C0.976732 21.4251 0.908325 21.5607 0.908325 21.7105V34.7978C0.908325 34.9476 0.976732 35.0832 1.08262 35.1434L38.2031 56.222C38.3955 56.3313 38.6111 56.1486 38.6111 55.8765V43.1252C38.6111 42.9754 38.5427 42.8398 38.4368 42.7797L13.4653 28.5997C13.2328 28.4677 13.2328 28.0406 13.4653 27.9086L38.4368 13.7286C38.5427 13.6685 38.6111 13.5329 38.6111 13.3831V0.631841C38.6111 0.359655 38.3955 0.177047 38.2031 0.286296Z" fill="black"/>
<path fill-rule="evenodd" clip-rule="evenodd" d="M38.2031 0.286296L1.08262 21.365C0.976732 21.4251 0.908325 21.5607 0.908325 21.7105V34.7978C0.908325 34.9476 0.976732 35.0832 1.08262 35.1434L38.2031 56.222C38.3955 56.3313 38.6111 56.1486 38.6111 55.8765V43.1252C38.6111 42.9754 38.5427 42.8398 38.4368 42.7797L13.4653 28.5997C13.2328 28.4677 13.2328 28.0406 13.4653 27.9086L38.4368 13.7286C38.5427 13.6685 38.6111 13.5329 38.6111 13.3831V0.631841C38.6111 0.359655 38.3955 0.177047 38.2031 0.286296Z" fill="#4AC959"/>
</svg>
