<svg width="131" height="35" viewBox="0 0 131 35" fill="none" xmlns="http://www.w3.org/2000/svg">
<mask id="mask0_2964:119" style="mask-type:alpha" maskUnits="userSpaceOnUse" x="0" y="0" width="27" height="35">
<path fill-rule="evenodd" clip-rule="evenodd" d="M0 0.816284H26.2218V34.0727H0V0.816284Z" fill="white"/>
</mask>
<g mask="url(#mask0_2964:119)">
<path fill-rule="evenodd" clip-rule="evenodd" d="M25.938 0.835374L0.121218 13.3533C0.047576 13.389 0 13.4695 0 13.5585V21.3306C0 21.4195 0.047576 21.5001 0.121218 21.5358L25.938 34.0536C26.0719 34.1185 26.2218 34.0101 26.2218 33.8484V26.2759C26.2218 26.187 26.1743 26.1064 26.1006 26.0707L8.7332 17.6497C8.57156 17.5713 8.57156 17.3177 8.7332 17.2393L26.1006 8.8183C26.1743 8.7826 26.2218 8.70207 26.2218 8.61311V1.04058C26.2218 0.87894 26.0719 0.770495 25.938 0.835374" fill="black"/>
<path fill-rule="evenodd" clip-rule="evenodd" d="M25.938 0.835374L0.121218 13.3533C0.047576 13.389 0 13.4695 0 13.5585V21.3306C0 21.4195 0.047576 21.5001 0.121218 21.5358L25.938 34.0536C26.0719 34.1185 26.2218 34.0101 26.2218 33.8484V26.2759C26.2218 26.187 26.1743 26.1064 26.1006 26.0707L8.7332 17.6497C8.57156 17.5713 8.57156 17.3177 8.7332 17.2393L26.1006 8.8183C26.1743 8.7826 26.2218 8.70207 26.2218 8.61311V1.04058C26.2218 0.87894 26.0719 0.770495 25.938 0.835374" fill="#4AC959"/>
</g>
<path fill-rule="evenodd" clip-rule="evenodd" d="M40.197 13.0743C39.1134 13.0743 38.2344 13.4802 37.5595 14.2914C36.8845 15.1029 36.5469 16.1539 36.5469 17.4443C36.5469 18.772 36.8845 19.8416 37.5595 20.6528C38.2344 21.4643 39.1134 21.8699 40.197 21.8699C41.6497 21.8699 42.7728 21.391 43.5661 20.4334C43.7024 20.269 43.9292 20.2479 44.0845 20.3901L45.5472 21.7287C45.7049 21.8731 45.7296 22.131 45.6031 22.309C45.0339 23.1096 44.3152 23.7378 43.4473 24.1931C42.4636 24.7096 41.3221 24.9677 40.0223 24.9677C38.7054 24.9677 37.5346 24.6541 36.5095 24.0273C35.4845 23.4006 34.6883 22.5197 34.1221 21.3857C33.5552 20.2517 33.2721 18.9475 33.2721 17.4719C33.2721 15.9785 33.5596 14.6605 34.1345 13.5167C34.7095 12.3738 35.5094 11.4885 36.5344 10.8617C37.5595 10.2349 38.7384 9.92133 40.0722 9.92133C41.2888 9.92133 42.3761 10.1563 43.3349 10.6263C44.1755 11.039 44.8785 11.6043 45.4437 12.3221C45.5762 12.4904 45.5647 12.745 45.4184 12.8986L43.9643 14.4259C43.8189 14.5787 43.5921 14.5762 43.4463 14.424C42.5837 13.5243 41.5006 13.0743 40.197 13.0743" fill="black"/>
<path fill-rule="evenodd" clip-rule="evenodd" d="M40.197 13.0743C39.1134 13.0743 38.2344 13.4802 37.5595 14.2914C36.8845 15.1029 36.5469 16.1539 36.5469 17.4443C36.5469 18.772 36.8845 19.8416 37.5595 20.6528C38.2344 21.4643 39.1134 21.8699 40.197 21.8699C41.6497 21.8699 42.7728 21.391 43.5661 20.4334C43.7024 20.269 43.9292 20.2479 44.0845 20.3901L45.5472 21.7287C45.7049 21.8731 45.7296 22.131 45.6031 22.309C45.0339 23.1096 44.3152 23.7378 43.4473 24.1931C42.4636 24.7096 41.3221 24.9677 40.0223 24.9677C38.7054 24.9677 37.5346 24.6541 36.5095 24.0273C35.4845 23.4006 34.6883 22.5197 34.1221 21.3857C33.5552 20.2517 33.2721 18.9475 33.2721 17.4719C33.2721 15.9785 33.5596 14.6605 34.1345 13.5167C34.7095 12.3738 35.5094 11.4885 36.5344 10.8617C37.5595 10.2349 38.7384 9.92133 40.0722 9.92133C41.2888 9.92133 42.3761 10.1563 43.3349 10.6263C44.1755 11.039 44.8785 11.6043 45.4437 12.3221C45.5762 12.4904 45.5647 12.745 45.4184 12.8986L43.9643 14.4259C43.8189 14.5787 43.5921 14.5762 43.4463 14.424C42.5837 13.5243 41.5006 13.0743 40.197 13.0743" fill="black"/>
<path fill-rule="evenodd" clip-rule="evenodd" d="M51.2227 14.2359C50.5225 15.0656 50.1724 16.1446 50.1724 17.4719C50.1724 18.7996 50.5225 19.8785 51.2227 20.7083C51.9225 21.5381 52.8392 21.9529 53.9727 21.9529C55.0728 21.9529 55.9726 21.5381 56.6729 20.7083C57.3727 19.8785 57.7228 18.7996 57.7228 17.4719C57.7228 16.1446 57.3727 15.0656 56.6729 14.2359C55.9726 13.4061 55.0728 12.9912 53.9727 12.9912C52.8392 12.9912 51.9225 13.4061 51.2227 14.2359M57.635 10.8617C58.6934 11.4885 59.5182 12.3689 60.11 13.5029C60.7015 14.637 60.9977 15.9416 60.9977 17.4168C60.9977 18.9102 60.7015 20.229 60.11 21.3719C59.5182 22.5153 58.6934 23.4006 57.635 24.0273C56.5763 24.6541 55.3557 24.9677 53.9724 24.9677C52.5724 24.9677 51.3389 24.6541 50.2725 24.0273C49.2053 23.4006 48.3762 22.5153 47.7847 21.3719C47.1929 20.229 46.8973 18.9102 46.8973 17.4168C46.8973 15.9416 47.1929 14.637 47.7847 13.5029C48.3762 12.3689 49.2053 11.4885 50.2725 10.8617C51.3389 10.2349 52.5724 9.92133 53.9724 9.92133C55.3557 9.92133 56.5763 10.2349 57.635 10.8617" fill="black"/>
<path fill-rule="evenodd" clip-rule="evenodd" d="M51.2227 14.2359C50.5225 15.0656 50.1724 16.1446 50.1724 17.4719C50.1724 18.7996 50.5225 19.8785 51.2227 20.7083C51.9225 21.5381 52.8392 21.9529 53.9727 21.9529C55.0728 21.9529 55.9726 21.5381 56.6729 20.7083C57.3727 19.8785 57.7228 18.7996 57.7228 17.4719C57.7228 16.1446 57.3727 15.0656 56.6729 14.2359C55.9726 13.4061 55.0728 12.9912 53.9727 12.9912C52.8392 12.9912 51.9225 13.4061 51.2227 14.2359M57.635 10.8617C58.6934 11.4885 59.5182 12.3689 60.11 13.5029C60.7015 14.637 60.9977 15.9416 60.9977 17.4168C60.9977 18.9102 60.7015 20.229 60.11 21.3719C59.5182 22.5153 58.6934 23.4006 57.635 24.0273C56.5763 24.6541 55.3557 24.9677 53.9724 24.9677C52.5724 24.9677 51.3389 24.6541 50.2725 24.0273C49.2053 23.4006 48.3762 22.5153 47.7847 21.3719C47.1929 20.229 46.8973 18.9102 46.8973 17.4168C46.8973 15.9416 47.1929 14.637 47.7847 13.5029C48.3762 12.3689 49.2053 11.4885 50.2725 10.8617C51.3389 10.2349 52.5724 9.92133 53.9724 9.92133C55.3557 9.92133 56.5763 10.2349 57.635 10.8617" fill="black"/>
<path fill-rule="evenodd" clip-rule="evenodd" d="M66.9231 14.2359C66.2229 15.0656 65.8727 16.1446 65.8727 17.4719C65.8727 18.7996 66.2229 19.8785 66.9231 20.7083C67.6229 21.5381 68.5396 21.9529 69.673 21.9529C70.7732 21.9529 71.673 21.5381 72.3732 20.7083C73.0731 19.8785 73.4232 18.7996 73.4232 17.4719C73.4232 16.1446 73.0731 15.0656 72.3732 14.2359C71.673 13.4061 70.7732 12.9912 69.673 12.9912C68.5396 12.9912 67.6229 13.4061 66.9231 14.2359M73.3355 10.8617C74.3939 11.4885 75.2186 12.3689 75.8104 13.5029C76.4019 14.637 76.6982 15.9416 76.6982 17.4168C76.6982 18.9102 76.4019 20.229 75.8104 21.3719C75.2186 22.5153 74.3939 23.4006 73.3355 24.0273C72.2767 24.6541 71.0561 24.9677 69.6729 24.9677C68.2728 24.9677 67.0394 24.6541 65.9729 24.0273C64.9057 23.4006 64.0766 22.5153 63.4851 21.3719C62.8933 20.229 62.5978 18.9102 62.5978 17.4168C62.5978 15.9416 62.8933 14.637 63.4851 13.5029C64.0766 12.3689 64.9057 11.4885 65.9729 10.8617C67.0394 10.2349 68.2728 9.92133 69.6729 9.92133C71.0561 9.92133 72.2767 10.2349 73.3355 10.8617" fill="black"/>
<path fill-rule="evenodd" clip-rule="evenodd" d="M66.9231 14.2359C66.2229 15.0656 65.8727 16.1446 65.8727 17.4719C65.8727 18.7996 66.2229 19.8785 66.9231 20.7083C67.6229 21.5381 68.5396 21.9529 69.673 21.9529C70.7732 21.9529 71.673 21.5381 72.3732 20.7083C73.0731 19.8785 73.4232 18.7996 73.4232 17.4719C73.4232 16.1446 73.0731 15.0656 72.3732 14.2359C71.673 13.4061 70.7732 12.9912 69.673 12.9912C68.5396 12.9912 67.6229 13.4061 66.9231 14.2359M73.3355 10.8617C74.3939 11.4885 75.2186 12.3689 75.8104 13.5029C76.4019 14.637 76.6982 15.9416 76.6982 17.4168C76.6982 18.9102 76.4019 20.229 75.8104 21.3719C75.2186 22.5153 74.3939 23.4006 73.3355 24.0273C72.2767 24.6541 71.0561 24.9677 69.6729 24.9677C68.2728 24.9677 67.0394 24.6541 65.9729 24.0273C64.9057 23.4006 64.0766 22.5153 63.4851 21.3719C62.8933 20.229 62.5978 18.9102 62.5978 17.4168C62.5978 15.9416 62.8933 14.637 63.4851 13.5029C64.0766 12.3689 64.9057 11.4885 65.9729 10.8617C67.0394 10.2349 68.2728 9.92133 69.6729 9.92133C71.0561 9.92133 72.2767 10.2349 73.3355 10.8617" fill="black"/>
<path fill-rule="evenodd" clip-rule="evenodd" d="M105.166 16.2827C105.396 16.2827 105.569 16.0565 105.539 15.8041C105.435 14.9377 105.122 14.2306 104.599 13.6828C103.982 13.0374 103.165 12.7145 102.149 12.7145C101.199 12.7145 100.403 13.0329 99.7613 13.669C99.2236 14.2018 98.8588 14.8995 98.6662 15.7622C98.6073 16.0262 98.7855 16.2827 99.0312 16.2827H105.166ZM106.936 11.9402C108.012 13.2866 108.549 15.1762 108.549 17.6104C108.549 17.8715 108.547 18.097 108.542 18.2869C108.536 18.5116 108.369 18.689 108.166 18.689H99.1466C98.8889 18.689 98.7062 18.9702 98.7896 19.2399C99.035 20.0327 99.434 20.6746 99.9863 21.1645C100.661 21.7637 101.49 22.0635 102.474 22.0635C103.157 22.0635 103.811 21.9209 104.437 21.6345C105.061 21.3488 105.607 20.9388 106.074 20.404L107.574 22.1337C107.716 22.2981 107.713 22.5597 107.567 22.7194C106.951 23.3887 106.225 23.9167 105.387 24.3037C104.428 24.7461 103.365 24.9677 102.199 24.9677C100.832 24.9677 99.6277 24.6541 98.5862 24.0273C97.5446 23.4006 96.74 22.5197 96.1739 21.3857C95.6069 20.2517 95.3239 18.9475 95.3239 17.4719C95.3239 15.9971 95.6113 14.688 96.1863 13.5443C96.7613 12.4013 97.5651 11.5116 98.5986 10.8755C99.6321 10.2394 100.807 9.92133 102.124 9.92133C104.257 9.92133 105.862 10.5943 106.936 11.9402V11.9402Z" fill="black"/>
<path fill-rule="evenodd" clip-rule="evenodd" d="M105.166 16.2827C105.396 16.2827 105.569 16.0565 105.539 15.8041C105.435 14.9377 105.122 14.2306 104.599 13.6828C103.982 13.0374 103.165 12.7145 102.149 12.7145C101.199 12.7145 100.403 13.0329 99.7613 13.669C99.2236 14.2018 98.8588 14.8995 98.6662 15.7622C98.6073 16.0262 98.7855 16.2827 99.0312 16.2827H105.166ZM106.936 11.9402C108.012 13.2866 108.549 15.1762 108.549 17.6104C108.549 17.8715 108.547 18.097 108.542 18.2869C108.536 18.5116 108.369 18.689 108.166 18.689H99.1466C98.8889 18.689 98.7062 18.9702 98.7896 19.2399C99.035 20.0327 99.434 20.6746 99.9863 21.1645C100.661 21.7637 101.49 22.0635 102.474 22.0635C103.157 22.0635 103.811 21.9209 104.437 21.6345C105.061 21.3488 105.607 20.9388 106.074 20.404L107.574 22.1337C107.716 22.2981 107.713 22.5597 107.567 22.7194C106.951 23.3887 106.225 23.9167 105.387 24.3037C104.428 24.7461 103.365 24.9677 102.199 24.9677C100.832 24.9677 99.6277 24.6541 98.5862 24.0273C97.5446 23.4006 96.74 22.5197 96.1739 21.3857C95.6069 20.2517 95.3239 18.9475 95.3239 17.4719C95.3239 15.9971 95.6113 14.688 96.1863 13.5443C96.7613 12.4013 97.5651 11.5116 98.5986 10.8755C99.6321 10.2394 100.807 9.92133 102.124 9.92133C104.257 9.92133 105.862 10.5943 106.936 11.9402V11.9402Z" fill="black"/>
<path fill-rule="evenodd" clip-rule="evenodd" d="M127.337 13.0467C126.646 12.8073 126.008 12.6869 125.425 12.6869C124.875 12.6869 124.437 12.7935 124.112 13.005C123.787 13.2173 123.625 13.5443 123.625 13.9871C123.625 14.4482 123.829 14.8031 124.237 15.0519C124.645 15.3006 125.291 15.5636 126.175 15.8403C127.108 16.1539 127.875 16.4626 128.475 16.7669C129.075 17.0708 129.596 17.5229 130.037 18.1222C130.479 18.7214 130.7 19.5098 130.7 20.4867C130.7 21.925 130.2 23.0315 129.2 23.8057C128.2 24.5804 126.941 24.9677 125.425 24.9677C124.391 24.9677 123.383 24.7878 122.4 24.428C121.528 24.1096 120.774 23.6715 120.139 23.1141C119.998 22.9907 119.951 22.7771 120.031 22.599L120.818 20.8371C120.923 20.6037 121.191 20.5354 121.38 20.6897C121.902 21.1141 122.5 21.4569 123.175 21.7175C124.008 22.0405 124.8 22.2017 125.55 22.2017C126.15 22.2017 126.629 22.0866 126.987 21.8561C127.345 21.6256 127.525 21.28 127.525 20.8189C127.525 20.3027 127.316 19.9154 126.9 19.6569C126.483 19.3992 125.808 19.1136 124.875 18.7996C123.975 18.505 123.241 18.2145 122.675 17.9285C122.108 17.6429 121.616 17.2093 121.199 16.6283C120.783 16.0478 120.575 15.2869 120.575 14.3465C120.575 12.8904 121.053 11.779 122.012 11.0137C122.97 10.2487 124.175 9.86584 125.625 9.86584C126.508 9.86584 127.379 10.004 128.237 10.2807C128.972 10.5175 129.636 10.835 130.23 11.2336C130.399 11.3466 130.461 11.5831 130.373 11.778L129.526 13.6519C129.432 13.8605 129.2 13.9438 129.015 13.833C128.47 13.5077 127.911 13.2456 127.337 13.0467" fill="black"/>
<path fill-rule="evenodd" clip-rule="evenodd" d="M127.337 13.0467C126.646 12.8073 126.008 12.6869 125.425 12.6869C124.875 12.6869 124.437 12.7935 124.112 13.005C123.787 13.2173 123.625 13.5443 123.625 13.9871C123.625 14.4482 123.829 14.8031 124.237 15.0519C124.645 15.3006 125.291 15.5636 126.175 15.8403C127.108 16.1539 127.875 16.4626 128.475 16.7669C129.075 17.0708 129.596 17.5229 130.037 18.1222C130.479 18.7214 130.7 19.5098 130.7 20.4867C130.7 21.925 130.2 23.0315 129.2 23.8057C128.2 24.5804 126.941 24.9677 125.425 24.9677C124.391 24.9677 123.383 24.7878 122.4 24.428C121.528 24.1096 120.774 23.6715 120.139 23.1141C119.998 22.9907 119.951 22.7771 120.031 22.599L120.818 20.8371C120.923 20.6037 121.191 20.5354 121.38 20.6897C121.902 21.1141 122.5 21.4569 123.175 21.7175C124.008 22.0405 124.8 22.2017 125.55 22.2017C126.15 22.2017 126.629 22.0866 126.987 21.8561C127.345 21.6256 127.525 21.28 127.525 20.8189C127.525 20.3027 127.316 19.9154 126.9 19.6569C126.483 19.3992 125.808 19.1136 124.875 18.7996C123.975 18.505 123.241 18.2145 122.675 17.9285C122.108 17.6429 121.616 17.2093 121.199 16.6283C120.783 16.0478 120.575 15.2869 120.575 14.3465C120.575 12.8904 121.053 11.779 122.012 11.0137C122.97 10.2487 124.175 9.86584 125.625 9.86584C126.508 9.86584 127.379 10.004 128.237 10.2807C128.972 10.5175 129.636 10.835 130.23 11.2336C130.399 11.3466 130.461 11.5831 130.373 11.778L129.526 13.6519C129.432 13.8605 129.2 13.9438 129.015 13.833C128.47 13.5077 127.911 13.2456 127.337 13.0467" fill="black"/>
<path fill-rule="evenodd" clip-rule="evenodd" d="M89.3738 20.6115C88.6736 21.4506 87.7737 21.8699 86.6736 21.8699C85.5566 21.8699 84.6484 21.455 83.9485 20.6253C83.2483 19.7955 82.8985 18.7166 82.8985 17.3893C82.8985 16.0802 83.2483 15.0106 83.9485 14.1808C84.6484 13.351 85.5566 12.9362 86.6736 12.9362C87.7737 12.9362 88.6736 13.351 89.3738 14.1808C90.0736 15.0106 90.4237 16.0802 90.4237 17.3893C90.4237 18.6987 90.0736 19.7724 89.3738 20.6115M92.9363 13.5443C92.4111 12.4013 91.6692 11.5116 90.7111 10.8755C89.7523 10.2394 88.6485 9.92133 87.3986 9.92133C86.3984 9.92133 85.5191 10.1381 84.7607 10.5712C84.3066 10.8308 83.9018 11.1612 83.5465 11.5627C83.3089 11.831 82.8984 11.6519 82.8984 11.2763V10.6586C82.8984 10.3682 82.6363 10.1671 82.3904 10.2689L79.8924 11.3035C79.7455 11.3644 79.6482 11.5197 79.6482 11.6932V30.1951H79.6852L82.6542 28.9653C82.8011 28.9045 82.8984 28.7492 82.8984 28.5756V23.592C82.8984 23.2186 83.3061 23.0371 83.5433 23.3025C83.9119 23.7148 84.3303 24.0533 84.7984 24.3174C85.5649 24.751 86.4483 24.9677 87.4484 24.9677C88.6983 24.9677 89.7985 24.6541 90.7485 24.0273C91.6985 23.4005 92.432 22.5246 92.9487 21.3995C93.4651 20.2752 93.7237 18.975 93.7237 17.4998C93.7237 16.006 93.4611 14.688 92.9363 13.5443" fill="black"/>
<path fill-rule="evenodd" clip-rule="evenodd" d="M89.3738 20.6115C88.6736 21.4506 87.7737 21.8699 86.6736 21.8699C85.5566 21.8699 84.6484 21.455 83.9485 20.6253C83.2483 19.7955 82.8985 18.7166 82.8985 17.3893C82.8985 16.0802 83.2483 15.0106 83.9485 14.1808C84.6484 13.351 85.5566 12.9362 86.6736 12.9362C87.7737 12.9362 88.6736 13.351 89.3738 14.1808C90.0736 15.0106 90.4237 16.0802 90.4237 17.3893C90.4237 18.6987 90.0736 19.7724 89.3738 20.6115M92.9363 13.5443C92.4111 12.4013 91.6692 11.5116 90.7111 10.8755C89.7523 10.2394 88.6485 9.92133 87.3986 9.92133C86.3984 9.92133 85.5191 10.1381 84.7607 10.5712C84.3066 10.8308 83.9018 11.1612 83.5465 11.5627C83.3089 11.831 82.8984 11.6519 82.8984 11.2763V10.6586C82.8984 10.3682 82.6363 10.1671 82.3904 10.2689L79.8924 11.3035C79.7455 11.3644 79.6482 11.5197 79.6482 11.6932V30.1951H79.6852L82.6542 28.9653C82.8011 28.9045 82.8984 28.7492 82.8984 28.5756V23.592C82.8984 23.2186 83.3061 23.0371 83.5433 23.3025C83.9119 23.7148 84.3303 24.0533 84.7984 24.3174C85.5649 24.751 86.4483 24.9677 87.4484 24.9677C88.6983 24.9677 89.7985 24.6541 90.7485 24.0273C91.6985 23.4005 92.432 22.5246 92.9487 21.3995C93.4651 20.2752 93.7237 18.975 93.7237 17.4998C93.7237 16.006 93.4611 14.688 92.9363 13.5443" fill="black"/>
<path fill-rule="evenodd" clip-rule="evenodd" d="M116.437 10.6818C115.99 10.9746 115.596 11.3426 115.257 11.7858C115.033 12.0785 114.599 11.8944 114.599 11.5109V10.6687C114.599 10.3783 114.337 10.1772 114.091 10.279L111.594 11.3135C111.447 11.3743 111.349 11.5296 111.349 11.7032V24.8292H111.39L114.355 23.601C114.502 23.5401 114.599 23.3848 114.599 23.2113V17.6931C114.599 16.3289 115.012 15.2455 115.837 14.4433C116.585 13.7158 117.563 13.3564 118.771 13.3645C118.979 13.3659 119.15 13.1804 119.15 12.9497V10.3299C119.15 10.0883 118.964 9.89548 118.746 9.91363C117.879 9.98592 117.109 10.2421 116.437 10.6818Z" fill="black"/>
<path fill-rule="evenodd" clip-rule="evenodd" d="M116.437 10.6818C115.99 10.9746 115.596 11.3426 115.257 11.7858C115.033 12.0785 114.599 11.8944 114.599 11.5109V10.6687C114.599 10.3783 114.337 10.1772 114.091 10.279L111.594 11.3135C111.447 11.3743 111.349 11.5296 111.349 11.7032V24.8292H111.39L114.355 23.601C114.502 23.5401 114.599 23.3848 114.599 23.2113V17.6931C114.599 16.3289 115.012 15.2455 115.837 14.4433C116.585 13.7158 117.563 13.3564 118.771 13.3645C118.979 13.3659 119.15 13.1804 119.15 12.9497V10.3299C119.15 10.0883 118.964 9.89548 118.746 9.91363C117.879 9.98592 117.109 10.2421 116.437 10.6818Z" fill="black"/>
</svg>
